<svg xmlns="http://www.w3.org/2000/svg" xmlns:xlink="http://www.w3.org/1999/xlink" version="1.1" x="0px" y="0px" viewBox="0 0 70 70" style="enable-background:new 0 0 70 70;" xml:space="preserve">
  <g><path
    fill="red"
    d="M44.7592201,40.9711723h-0.5599976v2.2900391c0,1.4499512-1.1799927,2.6298828-2.6300049,2.6298828   s-2.6400146-1.1799316-2.6400146-2.6298828v-2.2900391h-1.289978v2.2900391c0,1.4499512-1.1900024,2.6298828-2.6400146,2.6298828   c-1.460022,0-2.6400146-1.1799316-2.6400146-2.6298828v-2.2900391h-1.2999859v2.2900391   c0,1.4499512-1.1799927,2.6298828-2.6400146,2.6298828c-1.4400024,0-2.6199951-1.1799316-2.6199951-2.6298828v-2.2900391   h-0.5599976c-0.4899902,0-0.8099976,0.3200684-0.9599609,0.5c-0.3300171,0.4301758-0.4500122,1.0100098-0.3200073,1.5600586   l1.8099976,7.4101562c0.1599731,0.6799316,0.6900024,1.1599121,1.2699585,1.1599121h1.8800049v-2.2900391   c0-1.4499512,1.1800537-2.630127,2.6300049-2.630127c1.4600201,0,2.6400127,1.1801758,2.6400127,2.630127v2.2900391h1.6199951   v-2.2900391c0-1.4499512,1.1799927-2.630127,2.6400146-2.630127c1.4400024,0,2.6199951,1.1801758,2.6199951,2.630127v2.2900391   h1.8900146c0.5799561,0,1.1099854-0.4799805,1.2699585-1.1599121l1.8000488-7.4101562   c0.1399536-0.5500488,0.0199585-1.1298828-0.3099976-1.5600586C45.5692177,41.2912407,45.2492104,40.9711723,44.7592201,40.9711723   z"/><path fill="red"
    d="M20.0391903,28.24119c0-0.9477539,0.1466064-1.8063965,0.3863525-2.5561523   c-1.0803833,0.5883789-1.789917,1.5102539-1.789917,2.5556641s0.7094116,1.967041,1.7895508,2.5554199   C20.1856747,30.0466099,20.0391903,29.1884556,20.0391903,28.24119z"/>
    <path fill="red"
    d="M26.1992245,28.24119c0,0.9487305-0.1459351,1.8085938-0.3851318,2.5588379   c1.0839844-0.5881348,1.7961426-1.5117188,1.7961426-2.5593262c0-1.0478516-0.7122803-1.9711914-1.7965088-2.5595703   C26.0531673,26.4318638,26.1992245,27.2919712,26.1992245,28.24119z"/>
    <path fill="red"
    d="M49.5637245,25.6811314c0.2394409,0.7507324,0.385498,1.6108398,0.385498,2.5600586   c0,0.9487305-0.1459351,1.8085938-0.3851318,2.5588379c1.0839844-0.5881348,1.7961426-1.5117188,1.7961426-2.5593262   C51.3602333,27.1928501,50.647953,26.2695103,49.5637245,25.6811314z"/>
    <path fill="red"
    d="M66.5792313,2.8012495c-0.1699829-0.3798828-0.5100098-0.6298828-0.9700317-0.6000977   c-0.4099731,0.0200195-0.7699585,0.2900391-0.8999634,0.6801758c-1.9299965,5.8398438-9.1700478,8.7099609-11.0900307,9.3898926   c-5.1699829-3.9699707-11.6300049-6.329834-18.6199951-6.329834s-13.4400005,2.3598633-18.6099834,6.329834   c-1.8900146-0.6599121-9.1600342-3.5200195-11.1000366-9.3898926C5.1592464,2.4911909,4.7992001,2.2211714,4.3792171,2.2011518   c-0.4299929-0.0297852-0.799988,0.2202148-0.9600222,0.6000977C3.2192438,3.2512007-1.2307683,13.8613081,6.5792294,25.1012974   c-1.5,3.6298828-2.3200073,7.5998554-2.3200073,11.7700214c0,17.0500488,13.789978,30.9299278,30.7399883,30.9299278   c16.960022,0,30.7500038-13.879879,30.7500038-30.9299278c0-4.170166-0.8200073-8.1501484-2.3200111-11.7800312   C71.2291946,13.8613081,66.7792435,3.2512007,66.5792313,2.8012495z M16.6356258,28.2407017   c0-2.875,2.9041138-5.2133789,6.4761963-5.2182617c0.0025635,0,0.0048218-0.0012207,0.0073853-0.0012207   c0.001709,0,0.0031738,0.0007324,0.0048828,0.0007324c3.5766602,0.0004883,6.486145,2.3410645,6.486145,5.21875   c0,2.8754883-2.9052124,5.2143574-6.4779663,5.2182636c-0.0045166,0-0.0085449,0.0021973-0.0130615,0.0021973   c-0.0053711,0-0.0101929-0.0024414-0.0155029-0.0024414C19.5354671,33.4501762,16.6356258,31.1132603,16.6356258,28.2407017z    M47.9791908,43.5112114l-1.7999878,7.3999023c-0.2199707,0.880127-0.7299805,1.6101074-1.3999634,2.0800781l-0.2700195,6.1899414   c-0.0700073,1.3601074-1.1799927,2.420166-2.5300293,2.420166h-0.4099731c-1.2299805,0-2.2800293-0.880127-2.5-2.0800781   l-0.2600098-1.4699707c-0.039978-0.25-0.2600098-0.4299316-0.5200195-0.4299316h-0.539978   c-0.1900024,0-0.3800049,0.0998535-0.4699707,0.2697754l-0.3099976,0.5800781   c-0.4700317,0.8400879-1.3500366,1.3400879-2.3000488,1.3000488c-0.9499512-0.0300293-1.7999878-0.579834-2.1999512-1.4399414   l-0.2000122-0.420166c-0.0900269-0.1899414-0.2800274-0.3098145-0.4800396-0.3098145   c-0.289978,0-0.5299683,0.2399902-0.5299683,0.5300293v0.119873l0.0599976,0.6101074   c0.0499878,0.7099609-0.1900024,1.4099121-0.6699829,1.9199219c-0.4800415,0.5200195-1.1600342,0.8200684-1.8600464,0.8200684   H27.719244c-1.3900146,0-2.5200195-1.1401367-2.5200195-2.5300293v-6.0900879   c-0.6600342-0.4799805-1.1600342-1.1999512-1.3800049-2.0700684l-1.7999878-7.3999023   c-0.2800293-1.1499023-0.0200195-2.3701172,0.6900024-3.2700195c0.6300049-0.8100586,1.5499878-1.2700195,2.5299683-1.2700195   h19.5200176c0.9799805,0,1.9000244,0.4599609,2.5299683,1.2700195   C47.9992104,41.1410942,48.2492104,42.3613091,47.9791908,43.5112114z M46.882267,33.4589653   c-0.0045166,0-0.0085449,0.0021973-0.0130615,0.0021973c-0.0053711,0-0.0101929-0.0024414-0.0155029-0.0024414   c-3.5682373-0.0085449-6.4680786-2.3454609-6.4680786-5.2180195c0-2.875,2.9041138-5.2133789,6.4761963-5.2182617   c0.0025635,0,0.0048218-0.0012207,0.0073853-0.0012207c0.001709,0,0.0031738,0.0007324,0.0048828,0.0007324   c3.5766602,0.0004883,6.486145,2.3410645,6.486145,5.21875C53.3602333,31.11619,50.4550209,33.4550591,46.882267,33.4589653z"/><path fill="red"
    d="M43.7891884,28.24119c0-0.9477539,0.1466064-1.8063965,0.3863525-2.5561523   c-1.0803833,0.5883789-1.789917,1.5102539-1.789917,2.5556641s0.7094116,1.967041,1.7895508,2.5554199   C43.9356728,30.0466099,43.7891884,29.1884556,43.7891884,28.24119z"/></g>
</svg>
