<svg xmlns="http://www.w3.org/2000/svg" xmlns:xlink="http://www.w3.org/1999/xlink" version="1.1" x="0px" y="0px" viewBox="0 0 100 125" enable-background="new 0 0 100 100" xml:space="preserve"><g><path fill="none" d="M50,10.796c-21.617,0-39.204,17.587-39.204,39.204S28.382,89.204,50,89.204S89.205,71.617,89.205,50   S71.617,10.796,50,10.796z M63.033,24.736c4.123,0,7.462,5.189,7.462,11.592c0,6.401-3.339,11.592-7.462,11.592   c-4.122,0-7.465-5.19-7.465-11.592C55.568,29.925,58.911,24.736,63.033,24.736z M36.967,24.736c4.122,0,7.462,5.189,7.462,11.592   c0,6.401-3.34,11.592-7.462,11.592c-4.121,0-7.463-5.19-7.463-11.592C29.504,29.925,32.846,24.736,36.967,24.736z M72.835,63.751   c-3.433,5.591-8.935,9.638-15.218,11.457c0.066,0.407,0.109,0.849,0.109,1.358c0,5.103-3.459,10.363-7.728,10.363   c-4.268,0-7.728-5.262-7.728-10.363c0-0.537,0.047-1.002,0.12-1.426c-6.369-1.904-11.888-6.099-15.26-11.887   c-0.806-1.383-0.338-3.156,1.044-3.963c1.383-0.809,3.158-0.338,3.963,1.044c3.65,6.265,10.544,10.153,17.992,10.153   c7.259,0,14.065-3.744,17.765-9.771c0.838-1.364,2.623-1.793,3.984-0.954C73.245,60.604,73.673,62.389,72.835,63.751z"/><path d="M50,5C25.187,5,5,25.187,5,50c0,24.813,20.187,45,45,45c24.814,0,45-20.188,45-45C95,25.187,74.813,5,50,5z M50,89.204   c-21.617,0-39.204-17.587-39.204-39.204S28.382,10.796,50,10.796S89.205,28.383,89.205,50S71.617,89.204,50,89.204z"/><ellipse cx="36.967" cy="36.328" rx="7.462" ry="11.592"/><ellipse cx="63.033" cy="36.328" rx="7.462" ry="11.592"/><path d="M71.881,59.766c-1.361-0.839-3.146-0.41-3.984,0.955c-3.699,6.024-10.506,9.77-17.765,9.77   c-7.448,0-14.342-3.891-17.992-10.153c-0.805-1.382-2.58-1.853-3.963-1.044c-1.382,0.807-1.85,2.58-1.044,3.963   c3.372,5.788,8.891,9.982,15.26,11.887c-0.073,0.424-0.12,0.889-0.12,1.426c0,5.103,3.46,10.363,7.728,10.363   c4.269,0,7.728-5.262,7.728-10.363c0-0.51-0.043-0.951-0.109-1.358c6.283-1.819,11.785-5.866,15.218-11.457   C73.673,62.389,73.245,60.604,71.881,59.766z"/></g><text x="0" y="115" fill="#000000" font-size="5px" font-weight="bold" font-family="'Helvetica Neue', Helvetica, Arial-Unicode, Arial, Sans-serif">Created by Wilson Joseph</text><text x="0" y="120" fill="#000000" font-size="5px" font-weight="bold" font-family="'Helvetica Neue', Helvetica, Arial-Unicode, Arial, Sans-serif">from the Noun Project</text></svg>